<svg width="13" height="13" viewBox="0 0 13 13" fill="none" xmlns="http://www.w3.org/2000/svg">
<path d="M9.96098 12.6694C9.85837 12.6698 9.75715 12.6447 9.66582 12.5961L6.39332 10.8161L3.12083 12.5961C3.01456 12.6541 2.89475 12.68 2.77502 12.6709C2.65528 12.6617 2.54042 12.6178 2.4435 12.5442C2.34658 12.4706 2.27148 12.3702 2.22674 12.2544C2.182 12.1387 2.16941 12.0122 2.19041 11.8894L2.83208 8.13607L0.188412 5.46941C0.105931 5.38389 0.04742 5.27665 0.0191586 5.1592C-0.00910287 5.04175 -0.00604786 4.91852 0.0279957 4.80274C0.0651867 4.68426 0.133599 4.57898 0.225469 4.49885C0.317338 4.41871 0.428987 4.36694 0.547745 4.34941L4.20524 3.79607L5.81582 0.376073C5.86837 0.263359 5.9504 0.168302 6.05254 0.101789C6.15468 0.0352768 6.27278 0 6.39332 0C6.51386 0 6.63197 0.0352768 6.7341 0.101789C6.83624 0.168302 6.91828 0.263359 6.97082 0.376073L8.60065 3.78941L12.2581 4.34274C12.3769 4.36028 12.4886 4.41205 12.5804 4.49218C12.6723 4.57231 12.7407 4.67759 12.7779 4.79607C12.8119 4.91186 12.815 5.03509 12.7867 5.15254C12.7585 5.26999 12.7 5.37722 12.6175 5.46274L9.97382 8.12941L10.6155 11.8827C10.6384 12.0077 10.6264 12.1369 10.5809 12.255C10.5354 12.3732 10.4584 12.4753 10.3588 12.5494C10.2426 12.634 10.1027 12.6762 9.96098 12.6694V12.6694Z" fill="#FDE047"/>
</svg>
